<?xml version="1.0" encoding="UTF-8"?><svg id="Calque_2" xmlns="http://www.w3.org/2000/svg" viewBox="0 0 1059.25 458.35"><defs><style>.cls-1{fill:none;}.cls-2{fill:#00bfa6;}.cls-3{fill:#fff;}.cls-4{fill:#ccc;}.cls-5{fill:#3f3d56;}</style></defs><g id="Calque_1-2"><g><path class="cls-4" d="M734.64,206.77H160.06c-5.08,0-9.2,4.12-9.2,9.2s4.12,9.2,9.2,9.2h16.27s0,220.07,0,220.07c0,5.08,4.12,9.2,9.2,9.2,5.08,0,9.2-4.12,9.2-9.2l.14-220.07h461.16l42.52,220.07c0,5.08,4.12,9.2,9.2,9.2s9.2-4.12,9.2-9.2l2.68-220.07h15.01c5.08,0,9.2-4.12,9.2-9.2s-4.12-9.2-9.2-9.2h0Z"/><g><g><path class="cls-3" d="M259.65,165.78v38.95h-97.6c-10.76,.37-19.78-8.04-20.15-18.8-.37-10.76,8.04-19.78,18.8-20.15,.45-.02,.9-.02,1.36,0h97.6Z"/><path class="cls-2" d="M262.05,204.43c0,.83-.67,1.5-1.5,1.5h-100.23c-11.34-.01-20.52-9.21-20.5-20.55,.01-11.32,9.19-20.49,20.5-20.5h100.23c.83,0,1.5,.67,1.5,1.49,0,.83-.67,1.5-1.49,1.5h-.01s-100.23,0-100.23,0c-9.68,.02-17.52,7.88-17.5,17.56,.02,9.66,7.84,17.49,17.5,17.5h100.23c.83,0,1.5,.67,1.5,1.5Z"/><path class="cls-4" d="M259.65,174.77h-104.88c-.17,0-.3-.13-.3-.3,0-.17,.13-.3,.3-.3h104.88c.17,0,.3,.14,.3,.3,0,.16-.13,.3-.3,.3Z"/><path class="cls-4" d="M259.65,181.96h-104.88c-.17,0-.3-.13-.3-.3,0-.17,.13-.3,.3-.3h104.88c.17,0,.3,.14,.3,.3,0,.16-.13,.3-.3,.3Z"/><path class="cls-4" d="M259.65,189.15h-104.88c-.17,0-.3-.13-.3-.3,0-.17,.13-.3,.3-.3h104.88c.17,0,.3,.14,.3,.3,0,.16-.13,.3-.3,.3Z"/><path class="cls-4" d="M259.65,196.34h-104.88c-.17,0-.3-.13-.3-.3,0-.17,.13-.3,.3-.3h104.88c.17,0,.3,.14,.3,.3,0,.16-.13,.3-.3,.3Z"/></g><g><path class="cls-3" d="M241.26,124.74v38.95h-97.6c-10.76,.37-19.78-8.04-20.15-18.8-.37-10.76,8.04-19.78,18.8-20.15,.45-.02,.9-.02,1.36,0h97.6Z"/><path class="cls-5" d="M243.65,163.39c0,.83-.67,1.5-1.5,1.5h-100.23c-11.34,0-20.52-9.2-20.52-20.53,0-11.33,9.19-20.51,20.52-20.52h100.23c.83,0,1.5,.67,1.5,1.5s-.67,1.5-1.5,1.5h-100.23c-9.68,0-17.52,7.87-17.51,17.55,0,9.67,7.84,17.5,17.51,17.51h100.23c.83,0,1.5,.67,1.5,1.5Z"/><path class="cls-4" d="M241.26,133.73h-104.88c-.17,0-.3-.13-.3-.3,0-.17,.13-.3,.3-.3h104.88c.17,0,.3,.14,.3,.3,0,.16-.13,.3-.3,.3Z"/><path class="cls-4" d="M241.26,140.92h-104.88c-.17,0-.3-.13-.3-.3,0-.17,.13-.3,.3-.3h104.88c.17,0,.3,.14,.3,.3,0,.16-.13,.3-.3,.3Z"/><path class="cls-4" d="M241.26,148.11h-104.88c-.17,0-.3-.13-.3-.3,0-.17,.13-.3,.3-.3h104.88c.17,0,.3,.14,.3,.3,0,.16-.13,.3-.3,.3Z"/><path class="cls-4" d="M241.26,155.3h-104.88c-.17,0-.3-.13-.3-.3,0-.17,.13-.3,.3-.3h104.88c.17,0,.3,.14,.3,.3,0,.16-.13,.3-.3,.3Z"/></g><g><path class="cls-5" d="M224.29,111.74h-44.47c-.42,0-.84,.1-1.22,.28l-11.22,5.62c-1.04,.44-1.52,1.64-1.08,2.68,.21,.49,.59,.88,1.08,1.08l11.22,5.62c.38,.19,.79,.28,1.22,.28h44.47c1.28,.07,2.37-.89,2.46-2.17v-11.24c-.09-1.27-1.19-2.24-2.46-2.17Z"/><path class="cls-2" d="M226.75,113.91v11.24c-.09,1.27-1.19,2.24-2.46,2.17h-8.86v-15.57h8.86c1.28-.07,2.37,.89,2.46,2.17Z"/></g></g><g><path class="cls-5" d="M475.89,205.88l-4.69-1.98-3.22-23.54h-42.89l-3.49,23.44-4.2,2.1c-.49,.25-.69,.85-.45,1.34,.17,.34,.51,.55,.89,.55h57.66c.55,0,1-.45,1-1,0-.4-.24-.76-.61-.92Z"/><path class="cls-5" d="M552.11,183.5h-210.68c-2.3,0-4.16-1.87-4.16-4.17v-29.71h219.01v29.71c0,2.3-1.86,4.17-4.16,4.17Z"/><path class="cls-5" d="M556.49,163.66h-219.42s0-127.12,0-127.12c0-2.78,2.25-5.03,5.03-5.03h209.36c2.78,0,5.03,2.25,5.03,5.03v127.12Z"/><path class="cls-3" d="M543.39,154.43h-193.21c-2.14,0-3.88-1.74-3.88-3.88V44.62c0-2.14,1.74-3.88,3.88-3.88h193.21c2.14,0,3.88,1.74,3.88,3.88v105.94c0,2.14-1.74,3.88-3.88,3.88Z"/></g></g><rect class="cls-1" width="1059.25" height="458.35"/></g></svg>