<?xml version="1.0" encoding="UTF-8"?><svg id="Calque_2" xmlns="http://www.w3.org/2000/svg" viewBox="0 0 1059.25 458.35"><defs><style>.cls-1{fill:none;}.cls-2{fill:#00bfa6;}.cls-3{fill:#ffb6b6;}.cls-4{fill:#3f3d56;}.cls-5{fill:#2f2e41;}</style></defs><g id="Calque_1-2"><path class="cls-3" d="M492.5,191.82c4.71-4.35,12.06-4.06,16.41,.65,.46,.5,.88,1.04,1.25,1.62l26.13-4.65,6.7,15.19-37,6.04c-5.65,3.11-12.75,1.05-15.86-4.6-2.6-4.73-1.62-10.62,2.36-14.26Z"/><path class="cls-2" d="M516.69,211.21l27.25-.34,3.45-.05,55.43-.7s15.05-14.36,28.16-29.15l-1.84-13.29c-1.79-13.04-8.26-24.99-18.2-33.61-18.77,12.54-29.66,37.37-29.66,37.37l-34.37,8.22-3.44,.82-21.36,5.1-5.42,25.61Z"/><path class="cls-4" d="M656.17,292.89h-50.86c0,2.18-55.59,3.95-55.59,3.95-1.23,.92-2.34,1.98-3.33,3.16-2.97,3.54-4.59,8.01-4.58,12.63v3.16c0,10.9,8.84,19.73,19.74,19.74h94.62c10.9,0,19.73-8.84,19.74-19.74v-3.16c-.02-10.9-8.84-19.72-19.74-19.74Z"/><rect class="cls-4" x="598.66" y="334.74" width="20.53" height="118.49"/><path class="cls-4" d="M540.23,452.51c0,2.22,31.11,.86,69.48,.86s69.48,1.36,69.48-.86-31.11-19.81-69.48-19.81-69.48,17.59-69.48,19.81Z"/><polygon class="cls-3" points="526.44 438.97 511.16 438.97 503.89 380.04 526.44 380.04 526.44 438.97"/><path class="cls-5" d="M530.34,453.78h-49.26v-.62c0-10.59,8.58-19.17,19.17-19.17h30.09s0,19.8,0,19.8Z"/><polygon class="cls-3" points="481.29 438.97 466.01 438.97 458.74 380.04 481.29 380.04 481.29 438.97"/><path class="cls-5" d="M485.18,453.78h-49.26v-.62c0-10.59,8.58-19.17,19.17-19.17h30.09s0,19.8,0,19.8Z"/><path class="cls-5" d="M661.13,255.15s8.91,47.13-25,53.13c-33.91,6-82.87,10.22-82.87,10.22l-21.98,102.57-29.53-2.64s3.93-123.47,13.59-133.13c9.66-9.66,70.71-38.58,70.71-38.58l75.08,8.43Z"/><path class="cls-5" d="M594.9,235.4l-14.83,14.88s-107.09,17.25-111.23,41.99c-6.24,37.34-13.6,129.55-13.6,129.55l32.2-2.41,12.63-103.31,51.52-11.72,58.61-31.94-15.29-37.03Z"/><path class="cls-2" d="M608.22,259.55c-9.55-3.3-19.43-6.71-30.09-7.99l-.46-.06,.13-.44c11.03-38.73,8.28-63.51,2.87-100.72-2.36-16.49,6.41-32.56,21.55-39.5l.07-.03,30.43-1.93h.07s22.13,6.51,22.13,6.51c6.54,1.94,10.99,8.01,10.87,14.83-.24,12.24,.27,25.9,.81,40.37,1.21,32.46,2.46,66.02-4.63,87.79l-.04,.11-.09,.07c-6.52,5.31-14.68,8.17-23.08,8.11-9.94,0-20.07-3.5-30.53-7.12Z"/><path class="cls-4" d="M685.02,335.53h-34.08c0-8.64-37.25-15.64-37.25-15.64-.82-3.66-1.57-7.86-2.23-12.52-1.99-14.03-3.08-31.76-3.07-50.06v-12.52c0-43.2,7.52-59.14,12.23-67.22,3.61-6.2,13.04-17,30.63-17,23.1,0,28.76,9.34,33.78,14s13.22,27.04,13.23,70.22v12.52c-.01,43.18-5.93,78.16-13.23,78.22Z"/><path class="cls-3" d="M745.61,84.81c-6.4,.42-11.25,5.95-10.83,12.35,.04,.68,.15,1.36,.31,2.02l-21.36,15.76,6.41,15.32,29.85-22.68c6.15-1.96,9.54-8.53,7.58-14.67-1.64-5.14-6.59-8.49-11.97-8.1h0Z"/><path class="cls-2" d="M742.17,116.98l-59.9,66.52s-19.26-15.25-39.07-24.13l-8.9-27.33c-2.07-6.34-2.95-13.01-2.6-19.66,27.46-7.31,59.39,19.88,59.39,19.88l40.09-31.4,10.99,16.12Z"/><g><path class="cls-3" d="M592.35,54.09c-6.11,32.83,20.58,45.77,27.38,46.64,9.76,1.25,38.72-.68,44.77-33.22,6.08-32.69-5.93-57.96-25.85-61.67-19.92-3.71-40.22,15.56-46.3,48.24Z"/><path class="cls-5" d="M634.87,26.34c13.86-5.47,29.28,.65,27.15,24.4l4.65,4.78c1.07-4.28,9.27-43.83-27.87-50.74-37.14-6.91-43.72,32.94-44.26,37.32l6.06-2.78c6.56-22.93,23.15-23.1,34.11-13.01"/><path class="cls-5" d="M592.35,54.09c-2.55,13.19-1.01,27.7,3.39,39.45,4.39,11.75,11.9,17.52,23.16,19.62s21.54-.93,29.36-11.1c5.04-6.55,13.4-19.25,16.24-34.54-4.14,9.56-18.36,28.29-23.51,28.77,2.86-15.67-.68-18.31-2.56-19.41s-9.83-5.38-19.61-4.61c-7.52,.54-11.12-1.03-14.86,17.13-8.11-4.59-10.9-30.54-11.61-35.31Zm17.22,28.36c2.72-6.78,8.44-1.12,14.51-3.34,.64-.24,1.32-.11,1.82,.34,4.52,3.97,12.15,1.54,12.32,7.53,.37,9.49-4.65,11.69-10.43,12.32-2.34,.25-2.5-3.3-3.13-5.85-.14-.67,3.3,.06,3.3-1.94,0-3-11-4-11-2s3.07,3.01,3.07,3.01c0,.68-2.27,5.12-4.85,4.44-4.99-2.57-8.83-6.31-5.61-14.5Z"/></g><rect class="cls-1" width="1059.25" height="458.35"/></g></svg>