<?xml version="1.0" encoding="UTF-8"?><svg id="Calque_2" xmlns="http://www.w3.org/2000/svg" viewBox="0 0 1059.25 458.35"><defs><style>.cls-1{fill:none;}.cls-2{fill:#fff;}.cls-3{fill:#ccc;}.cls-4{fill:#d2d2d2;}.cls-5{fill:#3f3d56;}.cls-6{fill:#a27850;}.cls-7{isolation:isolate;opacity:.2;}</style></defs><g id="Calque_1-2"><g><g><path class="cls-3" d="M354.79,344.61v-33.97c0-3.13-2.53-5.66-5.66-5.66H220.35c-3.13,0-5.66,2.53-5.66,5.66v33.97h140.11Z"/><rect class="cls-3" x="214.69" y="357.35" width="140.11" height="43.87"/><path class="cls-3" d="M214.69,413.96v33.97c0,3.13,2.53,5.66,5.66,5.66h128.78c3.13,0,5.66-2.53,5.66-5.66v-33.97H214.69Z"/><path class="cls-2" d="M284.03,321.97c2.34,0,4.25,1.9,4.25,4.25s-1.9,4.25-4.25,4.25-4.25-1.9-4.25-4.25,1.9-4.25,4.25-4.25Z"/><path class="cls-2" d="M284.03,378.58c2.34,0,4.25,1.9,4.25,4.25s-1.9,4.25-4.25,4.25-4.25-1.9-4.25-4.25,1.9-4.25,4.25-4.25Z"/><circle class="cls-2" cx="284.26" cy="438.23" r="4.25"/></g><g><path class="cls-2" d="M315.88,276.01v28.7h-87.68c0-5.94,1.81-11.47,4.9-16.05,5.16-7.64,13.89-12.66,23.8-12.66,8.22-2.56,17.73-3.38,28.04-3.11,9.73,.25,20.18,1.47,30.93,3.11Z"/><path class="cls-4" d="M303.35,298.45h41.23c1.44,0,2.61,1.17,2.61,2.61h0c0,1.44-1.17,2.61-2.61,2.61h-41.23v-5.22h0Z"/><path class="cls-4" d="M310.5,251.44l11.05-13.4c.69-1.44,2.43-2.05,3.87-1.36,.75,.36,1.31,1.02,1.54,1.83l4.36,15.39-20.82-2.45Z"/><path class="cls-2" d="M297.09,258.27l4.18-16.86c0-1.6,1.3-2.9,2.9-2.9,.83,0,1.62,.36,2.18,.98l10.58,11.99-19.83,6.78Z"/><g><path class="cls-5" d="M225.42,299.33h5.55c-.1-2.97,.44-7.45,1.14-9.18-1.85,1.43-5.98,6.39-6.69,9.18Z"/><path class="cls-5" d="M223.73,358.82h0c3.64,0,7.23-3.88,8.37-9.28h-8.37v9.28Z"/><path class="cls-6" d="M224.07,307.62h7.97c-.58-3.42-.95-4.62-1.07-8.28h-5.55c-.89,3.46-1.01,4.41-1.35,8.28Z"/><path class="cls-5" d="M223.73,315.44h0v2.07h8.85s.07-6.35-.53-9.89h-7.97c-.23,2.56-.34,5.18-.34,7.83Z"/><rect class="cls-6" x="223.73" y="317.51" width="8.85" height="11.07"/><rect class="cls-5" x="223.73" y="328.58" width="8.85" height="9.89"/><path class="cls-6" d="M223.73,349.53h8.37c.3-1.44,.48-2.98,.48-4.6v-6.47h-8.85v11.07Z"/></g><path class="cls-2" d="M301.79,299.5h41.23c1.44,0,2.61,1.17,2.61,2.61h0c0,1.44-1.17,2.61-2.61,2.61h-41.23v-5.22h0Z"/><path class="cls-7" d="M315.88,276.01v28.55c-15.48,1.64-29.37-9.57-31.01-25.05-.23-2.2-.21-4.41,.08-6.6,9.73,.25,20.18,1.47,30.93,3.11Z"/><circle class="cls-2" cx="315.88" cy="276.53" r="28.18"/><ellipse class="cls-5" cx="343.02" cy="278.62" rx="3.13" ry="7.31"/><path class="cls-5" d="M313.52,248.04s-1.57-2.72-1.57-4.39"/><path class="cls-5" d="M314.2,246.27s.85-3.02,2.04-4.19"/><path class="cls-5" d="M321.35,250.65c-2.78,.79-.48,3.64,1.52,6.12s1.48,3.97-.72,7.94c-2.2,3.97-4.94,6.12-4.61,9.27s7.04,1.6,9.76,0c2.98-1.75,9.13-6.62,5.8-12.25s-8.29-12.08-11.76-11.09Z"/></g></g><rect class="cls-1" width="1059.25" height="458.35"/></g></svg>