<?xml version="1.0" encoding="UTF-8"?><svg id="Calque_2" xmlns="http://www.w3.org/2000/svg" viewBox="0 0 1059.25 458.35"><defs><style>.cls-1{fill:none;}.cls-2{fill:#00bfa6;}.cls-3{fill:#fff;}.cls-4{fill:#575a89;}</style></defs><g id="Calque_1-2"><g><path class="cls-2" d="M106.65,331.01c7.55-14.65,3.45-33.14-5.95-46.68s-23.29-23.19-36.87-32.54l-18.88-13c3.01,15.09,6.01,30.18,9.02,45.27,3.05,15.3,6.8,31.83,18.75,41.86,9.54,7.83,22.48,10.1,34.13,6.01"/><path class="cls-3" d="M105.23,386.73c-.2,.72-.95,1.14-1.67,.95-.71-.22-1.12-.95-.95-1.67,1.05-7.66,2.1-15.34,2.59-23.06,.81-12.77,.06-25.88-4.67-37.9-4.28-10.81-11.88-19.98-21.71-26.2-1.47-.93-.11-3.28,1.37-2.34,5.68,3.58,10.69,8.12,14.81,13.42,7.76,10.01,11.57,22.21,12.76,34.71,1.34,14.07-.62,28.17-2.54,42.09h0Z"/><path class="cls-2" d="M86.3,361.64c-2.11-11.95-12.76-20.95-24.31-24.69-11.55-3.74-23.98-3.2-36.1-2.62l-16.86,.81,25.47,22.49c8.61,7.6,18.18,15.61,29.65,16.16,9.08,.33,17.67-4.11,22.67-11.7"/><path class="cls-3" d="M110.63,394.73c.86,1.52-1.63,2.61-2.48,1.11-2.66-4.72-5.33-9.44-8.3-13.97-4.86-7.39-10.59-14.37-17.96-19.38-7.66-5.24-16.89-7.68-26.13-6.91-1.74,.15-2.17-2.53-.43-2.68,5.52-.49,11.07,.09,16.38,1.69,19.06,5.78,29.73,23.87,38.93,40.15h0Z"/><path class="cls-4" d="M129.08,455h-46.69s3.71-43.14,3.71-43.14c.61-7.06,4.97-13.25,11.41-16.2v-9.71h15.78v9.41c6.79,2.82,11.44,9.18,12.07,16.5l3.71,43.14Z"/></g><rect class="cls-1" width="1059.25" height="458.35"/></g></svg>